<svg xmlns="http://www.w3.org/2000/svg" version="1.1" xmlns:xlink="http://www.w3.org/1999/xlink" xmlns:svgjs="http://svgjs.dev/svgjs" width="1000" height="1125" viewBox="0 0 1000 1125"><g transform="matrix(1,0,0,1,0,0)"><svg viewBox="0 0 320 360" data-background-color="#ffffff" preserveAspectRatio="xMidYMid meet" height="1125" width="1000" xmlns="http://www.w3.org/2000/svg" xmlns:xlink="http://www.w3.org/1999/xlink"><defs></defs><g id="tight-bounds" transform="matrix(1,0,0,1,0,0)"><svg viewBox="0 0 320 360" height="360" width="320"><g><svg></svg></g><g><svg viewBox="0 0 320 360" height="360" width="320"><g><path d="M165.217 303.356c-1.404-1.755-2.809-0.702-2.808-1.755-8.426 2.106-24.223-3.511-30.894-2.809 1.404-2.106-2.106-1.755-2.106-3.159-1.404 2.106-2.809 0-4.915 0.702-2.106-5.266-10.532-1.404-11.585-8.075-4.915 0-6.67-2.809-11.586-5.617 0.351-0.351 0.702-0.351 1.054-0.702-2.457-0.351-2.457-1.755-4.564-1.755l0.702-1.405c-3.862-0.702-5.266-6.67-10.883-8.776-1.755-0.351-5.617-6.319-7.723-7.724-1.053-0.702-2.809-0.702-0.352-1.053-0.351-0.351-0.351-1.053 0-1.404-2.457-0.702-2.809-2.809-5.968-3.862-0.351-1.053 0.702-1.755 0-2.457-0.702-0.351-1.755 0.351-2.457 0-0.351 6.319 6.67 7.021 8.777 12.287-0.702-0.702-1.755-2.809-2.458-1.404-0.351 1.053 2.809 4.915 2.809 2.808-1.053 0.702-1.404-1.053-0.703-1.404 1.053 1.755 3.16 1.404 3.16 2.809-1.053 1.053-2.457-1.053-2.106 0.702 3.16 1.755 2.809 3.511 4.563 5.968-1.404-1.755-1.755 1.404-3.159 0-0.351-5.266-6.319-4.213-6.319-9.479-0.702-1.755-1.404-0.351-2.458-1.053 1.404-1.404-4.213-6.319-4.213-4.564-1.755-2.106-0.702-2.809-1.053-4.213-1.404-0.351-0.351 1.404-1.404 0.351 1.404-2.457-1.755-5.617-3.862-8.074l1.405-0.702c-2.457-1.404-2.809-4.213-4.564-7.373-2.106 3.16 4.213 10.181 3.159 11.585 0 0.351 2.457 3.16 3.16 4.564 2.809 4.915 4.915 10.883 8.777 13.692-0.702-0.351-0.351-2.457 0.702-1.404 0 1.053-0.702 2.106-0.702 3.159 2.106 2.106 3.862 3.862 5.968 5.968-4.564-2.809-9.128-5.617-12.288-9.83 1.755-0.351 3.511 2.809 4.915 2.458-3.511-2.809-2.457-3.862-3.861-7.372-1.404-1.053 0.351 1.404-1.054 1.755-4.564-4.213-8.075-6.67-10.181-10.532 0.351-0.351 0.702-0.702 0.703-1.404-0.351-0.351-0.351-0.351-0.703-0.702 2.106 2.106 2.809 3.862 5.266 4.212-1.053-1.053 0-1.404-1.404-2.457-0.702-1.404-1.755 0.702-2.457-0.351 0.702-1.053 0-2.457 0-3.511-0.702 0-1.404 0-1.756-1.053-0.702-0.351-1.053 0-1.404 0.702-0.351-0.351-0.351-1.053-0.702-1.404v-0.351c-0.351-0.351-0.702-1.053-1.053-1.405-2.809-7.372-4.564-17.202-8.426-23.521 1.053-4.213-0.702-12.638-1.755-14.745 1.053-1.755 0.351-9.83-0.351-11.234-1.755 0.702 0.351 4.564-1.404 5.617-1.755-7.723 1.053-16.5 0.351-23.521 0.702 0 1.404 0 1.404-0.351-1.053-1.053 0.702-3.16 0.351-5.617 1.404-3.16-3.16 4.564-3.16 7.723-0.351 0.702-1.755 0-1.404 1.756 0 2.457 0.702 7.372-0.702 10.883-0.702 0-0.702-0.702-1.404-0.351-0.351 1.755-0.702 3.862-1.053 5.617-0.351-0.702-0.702-1.755-0.703-2.107-1.755-8.777 0-18.958-0.702-26.33 1.404 0 1.404-2.106 2.458-2.808-0.351 2.809-1.053 6.319 0.702 7.021 1.404-13.692 4.213-28.787 10.532-43.532 4.564-10.883 11.234-21.766 19.308-30.543 0.702 1.053-0.351 3.511 0 4.564 7.021-7.372 11.585-16.149 19.309-21.064 0.351 1.755-3.16 3.16-3.16 4.564 3.16-3.16 4.213-2.106 7.724-3.159 1.053-1.404-1.404 0-1.756-1.405 2.106-1.404 3.511-3.16 4.915-4.212 0 0.351-0.351 0.351-0.351 0.702 3.862-1.053 4.213-3.16 7.022-3.862-0.351-0.351-1.053-0.702-2.107-0.351 0.702-0.351 1.755-1.053 2.809-1.404-0.351 0-0.351 0.351-0.702 0.351 2.106-1.053 0.351 0.351 0.351 1.053 0.351 0 0.702-0.351 0.702-0.351-2.106 1.404-3.511 2.106-4.213 4.564 1.053-0.702 1.404 0 2.809-1.054 1.404-0.702-0.351-1.755 0.702-2.457 1.053 0.702 2.457 0.351 3.51 0.351 0-0.702 0.351-1.404 1.054-1.755 0.351-0.702 0-1.053-0.352-1.053 0.351-0.351 0.702-0.351 1.405-0.703 0 0 0.351 0 0.351 0.351 5.968-2.809 12.638-5.266 18.957-7.372 3.862-0.351 8.777-0.351 10.883-2.808-0.702 0-1.404 0.351-1.755 0 0.351 0 1.053-0.351 1.404-0.351 0.702 0.702 1.755 0 0.702 1.404 0.351 0 0.351 0 0.703-0.351 0 0.351 0 0.351 0.351 0.702 0.351 0 0.702-0.351 1.053-1.053 0.351 0 0.702 0 1.053-0.351l-0.351 0.351c2.809-0.702 5.266-0.351 9.128-1.054 0-0.351 0-0.702 0-1.053 0.702 0 1.053-0.351 1.755-0.351v0.351c1.404-0.702 2.809 0.702 2.808 0 0.351 0 0.351 0 0.703 0 0 0.702-0.351 1.053-0.351 1.405 1.755 0 2.809 0 3.51-1.054-0.351-0.351-0.702-0.351-1.053-0.351 0.702 0 1.404-0.351 2.106-0.702 1.053 0.351 1.404 0.702 1.405 2.107 1.755-3.16 7.372 0.702 9.829 0 1.053 0 0.702-1.404 1.405-2.107 0.351 0 0.702 0 1.053 0 1.755 1.404 4.213 2.809 7.372 3.16-2.809-0.702 0.351-1.053 0.702-1.405-0.702 0-0.702-0.351-0.702-0.702 1.053 0 2.106 0.351 3.16 0.351 0 0.702 0.351 1.053 1.053 1.054 0.702 0 0.702-0.351 0.702-1.054 1.053 0 1.755 0 2.809 0.351-0.351 1.404 1.755 1.755 2.457 2.809-2.809-0.702-5.968-1.755-7.021 0 11.234 2.457 23.521 5.968 35.457 11.936 0 0 0 0 0 0.351h0.352c2.106 1.053 4.213 2.106 6.319 3.16 1.404 0.702 2.457 1.404 3.861 2.457 0 0.351 0 0.702 0.703 0.702h0.351c1.404 1.053 2.809 1.755 4.212 2.809 1.404 2.106 2.809 4.915 5.266 4.213 5.266 8.075 10.883 11.234 15.447 19.659 0.351-1.404 1.404 3.16 3.16 3.511-2.809-0.351 1.755 1.755-1.053 1.404 2.457 2.457 3.16 3.511 3.51 6.319-0.702-1.404-1.053-1.755-1.404-0.351-0.351 2.106 2.457-0.351 3.511 1.756-2.106 0-1.404 1.404-1.054 3.159 1.053-1.053 0.702-2.106 1.756-1.755 1.404 1.404-0.702 1.755-0.351 2.809 1.053-1.404 1.404-0.702 2.808 0-1.755 0.351 1.053 2.809-1.053 1.755 1.404 1.755 1.755 2.809 1.053 4.564-1.404-2.106-0.351-3.511-2.457-3.16 4.213 3.511 2.106 11.585 7.021 12.287-3.16 0.702 0 2.106-1.755 2.458 2.106 0.702 1.053 3.511 3.51 4.213-0.351 1.755-1.053 2.809-1.404 4.563 1.053 1.404 1.404 4.213 3.16 4.564-1.053 1.053-0.351 3.862-1.404 4.915 1.404-0.702 2.106-0.702 3.159 0.702-1.755 1.404-0.351 2.809-1.404 3.16 3.16 8.075-0.702 24.575 1.053 30.894-2.106-1.053-1.404 2.457-2.808 2.457 2.457 1.053 0.351 2.809 1.404 4.564-4.915 2.809 0 10.532-6.67 12.287 0.702 4.915-2.106 7.021-4.213 12.288-0.351-0.351-0.351-0.702-0.702-1.054-0.351 2.457-1.755 2.809-1.054 4.915l-1.404-0.702c0 3.862-5.968 5.968-7.372 11.936-0.351 1.755-5.617 6.319-7.022 8.777-0.702 1.053-0.351 2.809-1.053 0.351-0.351 0.351-1.053 0.351-1.404 0.351-0.351 2.457-2.457 3.16-3.16 6.319-0.702 0.351-1.755-0.702-2.457 0.351 0 0.702 0.702 1.755 0.351 2.458 6.319-0.351 6.319-7.723 11.234-10.181-0.351 1.053-2.457 2.106-1.053 2.808 1.053 0 4.213-3.511 2.457-3.159 1.053 0.702-1.053 1.404-1.404 1.053 1.755-1.404 1.053-3.16 2.458-3.511 1.053 0.702-1.053 2.457 1.053 2.107 1.404-3.16 3.16-3.511 5.266-5.266-1.404 1.404 1.755 1.755 0.351 3.159-5.266 1.053-3.511 7.021-8.777 7.724-1.404 1.053-0.351 1.404-0.702 2.457-1.755-1.053-5.617 4.915-4.213 4.564-1.755 1.755-2.809 1.053-4.212 1.404-0.351 1.404 1.404 0.351 0.702 1.405-2.457-1.053-5.617 2.457-7.724 4.915l-1.053-1.054c-1.053 2.809-3.862 3.16-7.021 5.266 3.511 1.755 9.479-5.617 11.234-4.564 0.351 0 3.16-2.809 4.213-3.861 4.564-3.511 10.181-6.319 12.287-10.181-0.351 0.702-2.457 0.702-1.404-0.351 1.053-0.351 2.106 0.351 3.159 0.351 5.617-7.723 12.638-14.043 17.905-23.17 0.351-0.351 0.702-1.053 1.053-1.756-0.702 2.106-1.755 3.862-2.458 5.968-5.617 3.862-7.723 15.096-14.393 16.851 0.351 3.862-3.16 4.915-4.915 9.479-1.053 1.404-1.755-1.053-2.809 0.702 1.053 4.915-8.777 4.564-8.425 9.128-0.702 0.351-1.755 0.702-2.458 1.404h-0.351c-0.351 0.351-0.351 0.351-0.702 0.702-1.755 1.053-3.16 2.106-4.564 3.16-4.915 2.809-11.585 4.915-16.851 7.723v-0.351c-1.404 0.702-3.16 0.351-2.809 1.756-1.053 0.702-2.106 1.404-3.159 2.106-0.351 0-0.351 0-0.702 0 0 0-0.351-0.351-0.702-0.351-0.702 0-0.702 0-1.054 0.351-4.564 0.351-10.532 2.457-12.287 3.862-1.755-1.053-9.83 0.702-11.234 1.404 0.702 1.053 2.809 0 4.564 0-1.053 0.351-2.106 0.702-2.458 1.404-0.351 0-0.351 0-0.702 0-0.351-1.053-1.404 0-1.755-0.351h0.351c-0.351-1.404-1.404-2.106-3.16-1.755 0 0.702 0 1.053-0.351 1.755 0.702 0 2.809-1.053 2.809 0-0.351 0-0.351 0.351 0 0.351-0.702 0.702-1.755 0.702-2.458 1.054-1.404 0-3.16 0-4.563 0-0.351-0.351-0.702-0.351-1.405-0.703-0.351 0.351-1.053 0.351-1.404 0.703-2.106 0-4.564 0.351-6.319 0.702 0-0.702 0-1.404-0.702-1.405-1.053 1.404-3.16-0.351-5.617 0.352-2.457-0.702 1.404 1.053 4.915 1.755-0.351 0.351-0.702 0.702-1.756 1.053M116.068 308.271c-4.915-4.564-15.096-6.67-16.851-10.181-2.809-0.351-7.021-5.617-10.532-6.319 1.755 0 0.351-1.053 0-1.755-0.702 0.702-1.404 1.053-2.106 1.053 0-2.809-2.809-4.564-5.266-6.319 1.755 1.053 3.16 1.755 5.266 2.106 0-0.702 0-1.404 0.702-1.404 2.457 2.457 5.266 4.915 8.425 7.372 4.213 3.862 25.979 13.692 29.841 15.447 0 0-0.702 1.404-0.351 1.404 1.755 1.053 3.16-1.053 3.511 1.404-5.617 0.702-7.723-3.16-12.639-2.808M277.909 226.824v0.351 0c-0.351 0 0-0.351 0-0.351M136.079 64.281c-0.351 0.351-0.702 0.351-0.702 0.351 0-0.351 0.351-0.351 0.702-0.351M129.409 66.036c0 0.351 0 0.351 0 0 0 0.351 0 0.351 0 0 0 0.351 0 0 0 0M106.238 73.408v0c0.351-0.351 0.351-0.351 0.703-0.351-0.351 0-0.702 0.351-0.703 0.351M162.409 61.823c-0.702 0-1.053 0-1.404-0.351 0.351 0 0.702 0 1.053 0h0.351c0 0 0 0 0 0.351M168.728 62.525c-0.351-0.351-1.404-0.702-2.457-0.702 0-0.351 0.351-0.702 0.351-0.702 0.351 0 0.702 0 1.053 0 0 0 0.351 0 0.351 0.351 0 0 0 0 0-0.351 0.351 0 0.351 0 0.702 0 0.351 0.702 0.702 1.053 0 1.404M180.313 63.579c-1.755 0.351-2.809-0.351-4.564-1.405 1.053 0 2.457 0.351 3.511 0.702 0.351 0 0.702 0.351 1.053 0.703M305.292 113.43c-0.702 0.351-1.053 0.351-1.755-1.053-5.617-11.936-15.798-29.138-30.543-43.532-14.394-14.745-33.702-26.681-51.255-33.001 1.053 0.351 2.457 1.053 1.755 1.756-15.447-5.968-30.192-9.479-44.234-10.883-37.915-5.968-77.585 2.106-108.128 21.766 0.351 0.702 0.351 1.053-0.702 1.755-11.234 7.021-27.032 19.309-39.671 35.458-12.638 16.149-22.468 36.511-26.681 54.766 0.351-1.053 0.702-2.809 1.405-2.107-9.128 36.16-6.67 67.053 5.968 93.735 0.702-0.702-1.755-4.213 0.351-3.862 1.404 3.862 3.16 8.075 5.266 11.936 2.457 5.617 5.266 12.989 9.128 14.745-9.83-19.309-16.5-41.426-17.203-61.085 1.404 2.809 1.053 8.777 3.16 11.234 0.702-13.34-2.457-31.245 2.106-43.883-1.053 6.67-1.755 15.798-1.053 24.925 0 6.67 3.16 25.277 5.266 27.032-0.351-0.351-0.351-2.106 0-2.106 1.053 2.106-1.404 3.16 0.351 3.511 0-0.702 0.351-0.702 0.702-0.703 3.511 7.723 8.075 19.66 11.585 25.628 4.213 7.723 9.83 14.745 16.149 21.064 0 0.351 0.351 0.351 0.352 0.702 0.702 1.755 3.16 3.862 3.861 5.266 0.351 0.702-0.351 1.755 0 2.458 5.266 9.83 12.989 19.66 22.468 27.383 5.968 7.021 15.447 14.394 27.032 20.713 11.234 5.968 24.223 10.883 36.16 13.691 8.426 2.106 18.606 2.457 24.926 3.862 8.426 1.755 23.17-0.702 30.542-2.107 44.234-6.67 88.117-36.862 110.235-80.393 22.819-43.883 22.117-97.596 2.457-138.671" fill="#ee3e38" data-fill-palette-color="tertiary"></path></g><g transform="matrix(1,0,0,1,88.30781138739552,108)"><svg viewBox="0 0 143.38437722520897 144" height="144" width="143.38437722520897"><g><svg viewBox="0 0 143.38437722520897 144" height="144" width="143.38437722520897"><g><svg viewBox="0 0 160 160.68696217728" height="144" width="143.38437722520897"><g transform="matrix(1,0,0,1,0,95.49233113728002)"><svg viewBox="0 0 160 65.19463104" height="65.19463104" width="160"><g><svg viewBox="0 0 160 65.19463104" height="65.19463104" width="160"><g><svg viewBox="0 0 160 36.96" height="36.96" width="160"><g transform="matrix(1,0,0,1,0,0)"><svg width="160" viewBox="1.25 -34.65 149.99 34.65" height="36.96" data-palette-color="#ee3e38"><path d="M20.95-30.75L26.35-30.75Q27.15-28.05 28.05-25.13 28.95-22.2 29.93-19.28 30.9-16.35 31.88-13.53 32.85-10.7 33.75-8.2L33.75-8.2Q34.5-10.9 35.2-14.08 35.9-17.25 36.6-20.68 37.3-24.1 37.98-27.65 38.65-31.2 39.25-34.65L39.25-34.65 45.75-34.65Q44-25.25 41.85-16.57 39.7-7.9 37.05 0L37.05 0 31.05 0Q27.15-10.1 23.5-22.05L23.5-22.05Q21.65-16 19.75-10.55 17.85-5.1 15.95 0L15.95 0 9.95 0Q7.25-7.9 5.13-16.57 3-25.25 1.25-34.65L1.25-34.65 8-34.65Q8.6-31.25 9.28-27.7 9.95-24.15 10.68-20.73 11.4-17.3 12.15-14.1 12.9-10.9 13.65-8.2L13.65-8.2Q14.6-10.75 15.58-13.58 16.55-16.4 17.5-19.33 18.45-22.25 19.33-25.15 20.2-28.05 20.95-30.75L20.95-30.75ZM80.05 0L73.25 0Q72.55-2.05 71.8-4.05 71.05-6.05 70.35-8.15L70.35-8.15 55.75-8.15Q55.05-6.05 54.32-4.03 53.6-2 52.9 0L52.9 0 46.35 0Q48.3-5.55 50.05-10.25 51.8-14.95 53.47-19.15 55.15-23.35 56.8-27.15 58.45-30.95 60.2-34.65L60.2-34.65 66.15-34.65Q67.9-30.95 69.55-27.15 71.2-23.35 72.87-19.15 74.55-14.95 76.32-10.25 78.1-5.55 80.05 0L80.05 0ZM63.05-27.95L63.05-27.95Q61.9-25.3 60.42-21.5 58.95-17.7 57.35-13.25L57.35-13.25 68.75-13.25Q67.15-17.7 65.65-21.55 64.15-25.4 63.05-27.95ZM113.15 0L107.8 0Q106.1-2.85 104-6.13 101.9-9.4 99.65-12.73 97.4-16.05 95.07-19.18 92.75-22.3 90.65-24.8L90.65-24.8 90.65 0 84.45 0 84.45-34.65 89.6-34.65Q91.6-32.55 93.9-29.68 96.2-26.8 98.52-23.7 100.85-20.6 103.02-17.48 105.2-14.35 106.9-11.65L106.9-11.65 106.9-34.65 113.15-34.65 113.15 0ZM151.24 0L144.44 0Q143.74-2.05 142.99-4.05 142.24-6.05 141.54-8.15L141.54-8.15 126.94-8.15Q126.24-6.05 125.52-4.03 124.79-2 124.09 0L124.09 0 117.54 0Q119.49-5.55 121.24-10.25 122.99-14.95 124.67-19.15 126.34-23.35 127.99-27.15 129.64-30.95 131.39-34.65L131.39-34.65 137.34-34.65Q139.09-30.95 140.74-27.15 142.39-23.35 144.07-19.15 145.74-14.95 147.52-10.25 149.29-5.55 151.24 0L151.24 0ZM134.24-27.95L134.24-27.95Q133.09-25.3 131.62-21.5 130.14-17.7 128.54-13.25L128.54-13.25 139.94-13.25Q138.34-17.7 136.84-21.55 135.34-25.4 134.24-27.95Z" opacity="1" transform="matrix(1,0,0,1,0,0)" fill="#ee3e38" class="undefined-text-0" data-fill-palette-color="primary" id="text-0"></path></svg></g></svg></g><g transform="matrix(1,0,0,1,0,42.35335104)"><svg viewBox="0 0 160 22.84128" height="22.84128" width="160"><g transform="matrix(1,0,0,1,0,0)"><svg width="160" viewBox="2 -26.1 253.93 36.25" height="22.84128" data-palette-color="#8d021f"><path d="M13.8 0.6L13.8 0.6Q10.15 0.6 7.5-1.2 4.85-3 3.43-6.03 2-9.05 2-12.7L2-12.7Q2-16.5 3.63-19.53 5.25-22.55 8.28-24.33 11.3-26.1 15.5-26.1L15.5-26.1Q19.65-26.1 22.58-24.33 25.5-22.55 27.08-19.53 28.65-16.5 28.65-12.8L28.65-12.8 28.65 0 22.9 0 22.9-4.75 22.8-4.75Q22.05-3.35 20.85-2.13 19.65-0.9 17.9-0.15 16.15 0.6 13.8 0.6ZM15.35-4.3L15.35-4.3Q17.6-4.3 19.28-5.43 20.95-6.55 21.9-8.47 22.85-10.4 22.8-12.8L22.8-12.8Q22.8-15.2 21.9-17.07 21-18.95 19.35-20.08 17.7-21.2 15.4-21.2L15.4-21.2Q13-21.2 11.3-20.08 9.6-18.95 8.7-17.05 7.8-15.15 7.8-12.75L7.8-12.75Q7.8-10.4 8.7-8.47 9.6-6.55 11.28-5.43 12.95-4.3 15.35-4.3ZM70.09 10.15L56.24 10.15 56.24 5.25 69.04 5.25Q70.34 5.25 71.06 4.45 71.79 3.65 71.79 2.45L71.79 2.45 71.79-4.15 71.74-4.15Q70.64-2.8 69.39-1.83 68.14-0.85 66.56-0.33 64.99 0.2 63.09 0.2L63.09 0.2Q59.59 0.2 56.84-1.45 54.09-3.1 52.51-6.08 50.94-9.05 50.94-12.9L50.94-12.9Q50.94-16.65 52.51-19.63 54.09-22.6 57.04-24.35 59.99-26.1 64.24-26.1L64.24-26.1Q68.29-26.1 71.26-24.4 74.24-22.7 75.89-19.63 77.54-16.55 77.54-12.45L77.54-12.45 77.54 2.7Q77.54 6.15 75.54 8.15 73.54 10.15 70.09 10.15L70.09 10.15ZM64.19-4.7L64.19-4.7Q66.49-4.7 68.16-5.78 69.84-6.85 70.76-8.68 71.69-10.5 71.69-12.75L71.69-12.75Q71.69-15.15 70.79-17.05 69.89-18.95 68.21-20.08 66.54-21.2 64.19-21.2L64.19-21.2Q61.89-21.2 60.21-20.08 58.54-18.95 57.64-17.07 56.74-15.2 56.74-12.85L56.74-12.85Q56.74-10.6 57.64-8.75 58.54-6.9 60.21-5.8 61.89-4.7 64.19-4.7ZM120.82 0L113.97 0Q109.67 0 106.45-1.63 103.22-3.25 101.42-6.13 99.62-9 99.62-12.75L99.62-12.75Q99.62-16.7 101.22-19.7 102.82-22.7 105.62-24.4 108.42-26.1 112.07-26.1L112.07-26.1Q116.17-26.1 118.82-24.35 121.47-22.6 122.75-19.65 124.02-16.7 124.02-13.05L124.02-13.05Q124.02-12.55 123.97-11.9 123.92-11.25 123.82-10.9L123.82-10.9 105.72-10.9Q106.02-8.9 107.17-7.58 108.32-6.25 110.07-5.58 111.82-4.9 113.97-4.9L113.97-4.9 120.82-4.9 120.82 0ZM105.67-14.8L105.67-14.8 118.27-14.8Q118.22-15.75 118-16.7 117.77-17.65 117.3-18.5 116.82-19.35 116.1-19.98 115.37-20.6 114.37-20.98 113.37-21.35 112.07-21.35L112.07-21.35Q110.57-21.35 109.42-20.78 108.27-20.2 107.47-19.28 106.67-18.35 106.25-17.18 105.82-16 105.67-14.8ZM151.96 0L146.21 0 146.21-14.7Q146.21-18 147.71-20.58 149.21-23.15 151.96-24.63 154.71-26.1 158.41-26.1L158.41-26.1Q162.11-26.1 164.83-24.63 167.56-23.15 169.06-20.58 170.56-18 170.56-14.7L170.56-14.7 170.56 0 164.86 0 164.86-14.65Q164.86-16.6 163.96-18.07 163.06-19.55 161.58-20.38 160.11-21.2 158.36-21.2L158.36-21.2Q156.66-21.2 155.18-20.38 153.71-19.55 152.83-18.07 151.96-16.6 151.96-14.65L151.96-14.65 151.96 0ZM209.69 0L206.59 0Q202.64 0 199.54-1.7 196.44-3.4 194.64-6.28 192.84-9.15 192.84-12.75L192.84-12.75Q192.84-16.35 194.64-19.23 196.44-22.1 199.54-23.8 202.64-25.5 206.59-25.5L206.59-25.5 209.69-25.5 209.69-20.6 206.49-20.6Q204.19-20.6 202.42-19.58 200.64-18.55 199.64-16.75 198.64-14.95 198.64-12.75L198.64-12.75Q198.64-10.55 199.64-8.75 200.64-6.95 202.42-5.93 204.19-4.9 206.49-4.9L206.49-4.9 209.69-4.9 209.69 0ZM246.63 10.15L240.93 10.15 240.93 0.35Q238.03-0.2 235.93-1.73 233.83-3.25 232.68-5.6 231.53-7.95 231.53-10.8L231.53-10.8 231.53-25.5 237.28-25.5 237.28-10.85Q237.28-8.9 238.15-7.43 239.03-5.95 240.5-5.13 241.98-4.3 243.73-4.3L243.73-4.3Q245.48-4.3 246.95-5.13 248.43-5.95 249.3-7.43 250.18-8.9 250.18-10.85L250.18-10.85 250.18-25.5 255.93-25.5 255.93-10.8Q255.93-7.95 254.78-5.65 253.63-3.35 251.55-1.78 249.48-0.2 246.63 0.3L246.63 0.3 246.63 10.15Z" opacity="1" transform="matrix(1,0,0,1,0,0)" fill="#8d021f" class="undefined-text-1" data-fill-palette-color="secondary" id="text-1"></path></svg></g></svg></g></svg></g></svg></g><g transform="matrix(1,0,0,1,43.41505931222073,0)"><svg viewBox="0 0 73.16988137555855 90.09898009728002" height="90.09898009728002" width="73.16988137555855"><g><svg xmlns="http://www.w3.org/2000/svg" xmlns:xlink="http://www.w3.org/1999/xlink" version="1.1" x="0" y="0" viewBox="11.850962231163921 -0.13699980512943988 80.34403776883609 98.93299980512943" enable-background="new 0 0 100 100" xml:space="preserve" height="90.09898009728002" width="73.16988137555855" class="icon-icon-0" data-fill-palette-color="accent" id="icon-0"><circle cx="46.892" cy="15.705" r="14" fill="#5e1914" data-fill-palette-color="accent"></circle><path d="M82.658 64.078V53.082c0-9.675-7.168-19.159-18.493-19.159h-5.614L49.887 53.18V33.541h-5.989v19.443l-8.577-19.061h-4.976c-11.325 0-18.494 9.483-18.494 19.159v39.142c-0.024 8.762 11.398 8.762 11.398 0V54.011h3.582v44.763l4.646 0.002v0.02h22.456v-0.021h38.262V64.078H82.658zM67.679 54.011h3.582v10.067h-3.587L67.679 54.011zM55.232 67.621h16.028v13.853h-5.904v-4.854h-4.22v4.854h-5.904V67.621zM88.652 95.23h-33.42V85.016h16.028v0.695c0 8.762 11.422 8.762 11.397 0v-0.695h5.994V95.23zM88.652 81.474h-5.994V67.621h5.994V81.474z" fill="#5e1914" data-fill-palette-color="accent"></path></svg></g></svg></g><g></g></svg></g></svg></g></svg></g></svg></g></svg><rect width="320" height="360" fill="none" stroke="none" visibility="hidden"></rect></g></svg></g></svg>